<svg xmlns="http://www.w3.org/2000/svg" version="1.1" xmlns:xlink="http://www.w3.org/1999/xlink" xmlns:svgjs="http://svgjs.com/svgjs" width="1440" height="960" preserveAspectRatio="none" viewBox="0 0 1440 960"><g mask="url(&quot;#SvgjsMask1335&quot;)" fill="none"><rect width="1440" height="960" x="0" y="0" fill="#0e2a47"></rect><g mask="url(&quot;#SvgjsMask1336&quot;)"><path d="M770 510L790 490L810 490L830 490L850 490L870 490L890 490L910 490L930 490L950 490L970 490L990 490L1010 490L1030 470M430 490L450 470M710 490L730 470L750 450M470 490L490 470L510 470M590 530L610 530L630 530L650 530L670 530M70 490L90 470M130 490L150 470L170 470L190 470L210 470L230 470L250 470L270 470L290 470M730 490L750 490L770 490L790 470L810 470L830 470L850 470L870 470L890 470L910 470L930 470L950 470L970 470L990 470L1010 470M30 490L50 470L70 470M370 490L390 470L410 470L430 470L450 450L470 450L490 450L510 450L530 450L550 450M-10 490L10 490L30 490L50 490L70 490L90 490L110 490L130 490L150 490L170 490L190 490L210 490L230 490L250 490L270 490L290 490L310 490L330 510L350 510L370 490L390 490L410 490L430 490L450 490L470 490L490 490L510 510L530 510L550 510L570 530L590 530L610 510L630 490L650 490L670 490L690 490L710 490L730 490L750 510L770 510L790 510L810 510L830 510" stroke="#dd1133" stroke-width="3.33"></path><path d="M825 510 a5 5 0 1 0 10 0 a5 5 0 1 0 -10 0zM1025 470 a5 5 0 1 0 10 0 a5 5 0 1 0 -10 0zM445 470 a5 5 0 1 0 10 0 a5 5 0 1 0 -10 0zM745 450 a5 5 0 1 0 10 0 a5 5 0 1 0 -10 0zM505 470 a5 5 0 1 0 10 0 a5 5 0 1 0 -10 0zM665 530 a5 5 0 1 0 10 0 a5 5 0 1 0 -10 0zM85 470 a5 5 0 1 0 10 0 a5 5 0 1 0 -10 0zM285 470 a5 5 0 1 0 10 0 a5 5 0 1 0 -10 0zM1005 470 a5 5 0 1 0 10 0 a5 5 0 1 0 -10 0zM65 470 a5 5 0 1 0 10 0 a5 5 0 1 0 -10 0zM545 450 a5 5 0 1 0 10 0 a5 5 0 1 0 -10 0z" fill="#dd1133"></path><path d="M310 450L330 470L350 470L370 470M110 450L130 470M390 450L410 450L430 450M10 470L30 470M-10 470L10 470L30 450L50 450L70 450L90 450L110 450L130 450L150 450L170 450L190 450L210 450L230 450L250 450L270 450L290 450L310 450L330 450L350 450L370 450L390 450L410 430L430 430L450 430" stroke="#dd1133" stroke-width="3.33"></path><path d="M445 430 a5 5 0 1 0 10 0 a5 5 0 1 0 -10 0zM365 470 a5 5 0 1 0 10 0 a5 5 0 1 0 -10 0zM125 470 a5 5 0 1 0 10 0 a5 5 0 1 0 -10 0zM425 450 a5 5 0 1 0 10 0 a5 5 0 1 0 -10 0zM25 470 a5 5 0 1 0 10 0 a5 5 0 1 0 -10 0z" fill="#dd1133"></path><path d="M450 510L470 530L490 530M230 510L250 530L270 530L290 530L310 530M90 510L110 530L130 530L150 530M710 550L730 530L750 530M170 510L190 530M850 510L870 530M690 550L710 530M810 530L830 550L850 550L870 550L890 570L910 570L930 570L950 570M830 530L850 530M790 550L810 550L830 570L850 570L870 570L890 590M410 530L430 530L450 530M-10 510L10 510L30 510L50 510L70 510L90 510L110 510L130 510L150 510L170 510L190 510L210 510L230 510L250 510L270 510L290 510L310 510L330 530L350 530L370 530L390 530L410 530L430 510L450 510L470 510L490 510L510 530L530 530L550 530L570 550L590 550L610 550L630 550L650 550L670 550L690 550L710 550L730 550L750 550L770 550L790 550L810 530L830 530L850 510L870 510L890 510L910 510" stroke="#dd1133" stroke-width="3.33"></path><path d="M905 510 a5 5 0 1 0 10 0 a5 5 0 1 0 -10 0zM485 530 a5 5 0 1 0 10 0 a5 5 0 1 0 -10 0zM305 530 a5 5 0 1 0 10 0 a5 5 0 1 0 -10 0zM145 530 a5 5 0 1 0 10 0 a5 5 0 1 0 -10 0zM745 530 a5 5 0 1 0 10 0 a5 5 0 1 0 -10 0zM185 530 a5 5 0 1 0 10 0 a5 5 0 1 0 -10 0zM865 530 a5 5 0 1 0 10 0 a5 5 0 1 0 -10 0zM705 530 a5 5 0 1 0 10 0 a5 5 0 1 0 -10 0zM945 570 a5 5 0 1 0 10 0 a5 5 0 1 0 -10 0zM845 530 a5 5 0 1 0 10 0 a5 5 0 1 0 -10 0zM885 590 a5 5 0 1 0 10 0 a5 5 0 1 0 -10 0zM445 530 a5 5 0 1 0 10 0 a5 5 0 1 0 -10 0z" fill="#dd1133"></path><path d="M590 390L610 410M530 430L550 410M970 410L990 430M690 410L710 430L730 430L750 430L770 430L790 430L810 430L830 430L850 430L870 430L890 430M110 430L130 410M910 410L930 430M890 410L910 390L930 390L950 390L970 390L990 390L1010 390L1030 390L1050 390L1070 390L1090 390L1110 390L1130 390L1150 390L1170 390L1190 390M350 430L370 410L390 410M550 430L570 430L590 430L610 430L630 430L650 430L670 430L690 430L710 450M310 430L330 410L350 410M650 410L670 390L690 390L710 390L730 390L750 390M150 430L170 410L190 410L210 410L230 410L250 410L270 410L290 410L310 410M-10 450L10 450L30 430L50 430L70 430L90 430L110 430L130 430L150 430L170 430L190 430L210 430L230 430L250 430L270 430L290 430L310 430L330 430L350 430L370 430L390 430L410 410L430 410L450 410L470 410L490 430L510 430L530 430L550 430L570 410L590 390L610 390L630 410L650 410L670 410L690 410L710 410L730 410L750 410L770 410L790 410L810 410L830 410L850 410L870 410L890 410L910 410L930 410L950 410L970 410L990 410" stroke="#3a7cc3" stroke-width="3.33"></path><path d="M985 410 a5 5 0 1 0 10 0 a5 5 0 1 0 -10 0zM605 410 a5 5 0 1 0 10 0 a5 5 0 1 0 -10 0zM545 410 a5 5 0 1 0 10 0 a5 5 0 1 0 -10 0zM985 430 a5 5 0 1 0 10 0 a5 5 0 1 0 -10 0zM885 430 a5 5 0 1 0 10 0 a5 5 0 1 0 -10 0zM125 410 a5 5 0 1 0 10 0 a5 5 0 1 0 -10 0zM925 430 a5 5 0 1 0 10 0 a5 5 0 1 0 -10 0zM1185 390 a5 5 0 1 0 10 0 a5 5 0 1 0 -10 0zM385 410 a5 5 0 1 0 10 0 a5 5 0 1 0 -10 0zM705 450 a5 5 0 1 0 10 0 a5 5 0 1 0 -10 0zM345 410 a5 5 0 1 0 10 0 a5 5 0 1 0 -10 0zM745 390 a5 5 0 1 0 10 0 a5 5 0 1 0 -10 0zM305 410 a5 5 0 1 0 10 0 a5 5 0 1 0 -10 0z" fill="#3a7cc3"></path><path d="M710 570L730 590M530 550L550 570L570 590L590 590L610 590L630 590L650 590L670 590L690 590L710 590L730 610L750 610L770 610L790 610L810 610L830 630L850 630L870 630L890 630L910 630L930 630L950 630L970 630L990 630L1010 630L1030 630L1050 630L1070 630M970 610L990 590M930 610L950 590L970 590L990 570L1010 570L1030 570L1050 570L1070 570L1090 570L1110 570L1130 570L1150 570L1170 590M210 550L230 530M1130 610L1150 590M790 590L810 570M450 550L470 570M910 610L930 590M830 610L850 590L870 590M750 570L770 570L790 570M510 550L530 570L550 590M810 590L830 590M1050 610L1070 590L1090 590L1110 590M1090 610L1110 630L1130 630L1150 630M-10 530L10 530L30 530L50 530L70 530L90 550L110 550L130 550L150 550L170 550L190 550L210 550L230 550L250 550L270 550L290 550L310 550L330 550L350 550L370 550L390 550L410 550L430 550L450 550L470 550L490 550L510 550L530 550L550 550L570 570L590 570L610 570L630 570L650 570L670 570L690 570L710 570L730 570L750 570L770 590L790 590L810 590L830 610L850 610L870 610L890 610L910 610L930 610L950 610L970 610L990 610L1010 610L1030 610L1050 610L1070 610L1090 610L1110 610L1130 610L1150 610L1170 610" stroke="#dd1133" stroke-width="3.33"></path><path d="M1165 610 a5 5 0 1 0 10 0 a5 5 0 1 0 -10 0zM725 590 a5 5 0 1 0 10 0 a5 5 0 1 0 -10 0zM1065 630 a5 5 0 1 0 10 0 a5 5 0 1 0 -10 0zM985 590 a5 5 0 1 0 10 0 a5 5 0 1 0 -10 0zM1165 590 a5 5 0 1 0 10 0 a5 5 0 1 0 -10 0zM225 530 a5 5 0 1 0 10 0 a5 5 0 1 0 -10 0zM1145 590 a5 5 0 1 0 10 0 a5 5 0 1 0 -10 0zM805 570 a5 5 0 1 0 10 0 a5 5 0 1 0 -10 0zM465 570 a5 5 0 1 0 10 0 a5 5 0 1 0 -10 0zM925 590 a5 5 0 1 0 10 0 a5 5 0 1 0 -10 0zM865 590 a5 5 0 1 0 10 0 a5 5 0 1 0 -10 0zM785 570 a5 5 0 1 0 10 0 a5 5 0 1 0 -10 0zM545 590 a5 5 0 1 0 10 0 a5 5 0 1 0 -10 0zM825 590 a5 5 0 1 0 10 0 a5 5 0 1 0 -10 0zM1105 590 a5 5 0 1 0 10 0 a5 5 0 1 0 -10 0zM1145 630 a5 5 0 1 0 10 0 a5 5 0 1 0 -10 0z" fill="#dd1133"></path><path d="M250 390L270 370L290 370M210 370L230 370L250 370M450 390L470 370L490 370M190 370L210 390M510 390L530 370L550 370L570 370L590 350L610 350L630 350L650 350L670 350M1050 370L1070 350L1090 350L1110 350L1130 350L1150 350L1170 350L1190 350M1030 370L1050 350L1070 330L1090 330L1110 330L1130 330L1150 330L1170 330L1190 330M350 390L370 370L390 370L410 370L430 370L450 370M70 390L90 410L110 410M50 410L70 410M770 370L790 390L810 390L830 390L850 390L870 390L890 390M950 370L970 350L990 350L1010 350L1030 350M490 390L510 410L530 410M930 370L950 350L970 330M630 370L650 390M-10 430L10 430L30 410L50 410L70 390L90 390L110 390L130 390L150 390L170 370L190 370L210 370L230 390L250 390L270 390L290 390L310 390L330 390L350 390L370 390L390 390L410 390L430 390L450 390L470 390L490 390L510 390L530 390L550 390L570 390L590 370L610 370L630 370L650 370L670 370L690 370L710 370L730 370L750 370L770 370L790 370L810 370L830 370L850 370L870 370L890 370L910 370L930 370L950 370L970 370L990 370L1010 370L1030 370L1050 370L1070 370L1090 370L1110 370L1130 370L1150 370L1170 370" stroke="#dd1133" stroke-width="3.33"></path><path d="M1165 370 a5 5 0 1 0 10 0 a5 5 0 1 0 -10 0zM285 370 a5 5 0 1 0 10 0 a5 5 0 1 0 -10 0zM245 370 a5 5 0 1 0 10 0 a5 5 0 1 0 -10 0zM485 370 a5 5 0 1 0 10 0 a5 5 0 1 0 -10 0zM205 390 a5 5 0 1 0 10 0 a5 5 0 1 0 -10 0zM665 350 a5 5 0 1 0 10 0 a5 5 0 1 0 -10 0zM1185 350 a5 5 0 1 0 10 0 a5 5 0 1 0 -10 0zM1185 330 a5 5 0 1 0 10 0 a5 5 0 1 0 -10 0zM445 370 a5 5 0 1 0 10 0 a5 5 0 1 0 -10 0zM105 410 a5 5 0 1 0 10 0 a5 5 0 1 0 -10 0zM65 410 a5 5 0 1 0 10 0 a5 5 0 1 0 -10 0zM885 390 a5 5 0 1 0 10 0 a5 5 0 1 0 -10 0zM1025 350 a5 5 0 1 0 10 0 a5 5 0 1 0 -10 0zM525 410 a5 5 0 1 0 10 0 a5 5 0 1 0 -10 0zM965 330 a5 5 0 1 0 10 0 a5 5 0 1 0 -10 0zM645 390 a5 5 0 1 0 10 0 a5 5 0 1 0 -10 0z" fill="#dd1133"></path><path d="M430 570L450 570M470 590L490 590L510 590L530 590M210 570L230 590L250 590L270 590M290 570L310 590L330 590M130 570L150 590L170 590L190 590M110 570L130 590M-10 550L10 550L30 550L50 550L70 550L90 570L110 570L130 570L150 570L170 570L190 570L210 570L230 570L250 570L270 570L290 570L310 570L330 570L350 570L370 570L390 570L410 570L430 570L450 590L470 590L490 610L510 610L530 610L550 610L570 610L590 610" stroke="#dd1133" stroke-width="3.33"></path><path d="M585 610 a5 5 0 1 0 10 0 a5 5 0 1 0 -10 0zM445 570 a5 5 0 1 0 10 0 a5 5 0 1 0 -10 0zM525 590 a5 5 0 1 0 10 0 a5 5 0 1 0 -10 0zM265 590 a5 5 0 1 0 10 0 a5 5 0 1 0 -10 0zM325 590 a5 5 0 1 0 10 0 a5 5 0 1 0 -10 0zM185 590 a5 5 0 1 0 10 0 a5 5 0 1 0 -10 0zM125 590 a5 5 0 1 0 10 0 a5 5 0 1 0 -10 0z" fill="#dd1133"></path><path d="M590 330L610 310L630 310L650 310L670 310L690 310L710 310L730 310L750 330L770 330L790 330L810 330L830 330L850 330M330 350L350 370M890 350L910 330L930 330L950 330M690 350L710 330L730 330M670 330L690 330M870 350L890 330M530 350L550 350L570 350M350 350L370 330L390 330L410 330M430 350L450 330M310 350L330 370M130 370L150 350M-10 410L10 410L30 390L50 390L70 370L90 370L110 370L130 370L150 370L170 350L190 350L210 350L230 350L250 350L270 350L290 350L310 350L330 350L350 350L370 350L390 350L410 350L430 350L450 350L470 350L490 350L510 350L530 350L550 330L570 330L590 330L610 330L630 330L650 330L670 330L690 350L710 350L730 350L750 350L770 350L790 350L810 350L830 350L850 350L870 350L890 350L910 350" stroke="#3a7cc3" stroke-width="3.33"></path><path d="M905 350 a5 5 0 1 0 10 0 a5 5 0 1 0 -10 0zM845 330 a5 5 0 1 0 10 0 a5 5 0 1 0 -10 0zM345 370 a5 5 0 1 0 10 0 a5 5 0 1 0 -10 0zM945 330 a5 5 0 1 0 10 0 a5 5 0 1 0 -10 0zM725 330 a5 5 0 1 0 10 0 a5 5 0 1 0 -10 0zM685 330 a5 5 0 1 0 10 0 a5 5 0 1 0 -10 0zM885 330 a5 5 0 1 0 10 0 a5 5 0 1 0 -10 0zM565 350 a5 5 0 1 0 10 0 a5 5 0 1 0 -10 0zM405 330 a5 5 0 1 0 10 0 a5 5 0 1 0 -10 0zM445 330 a5 5 0 1 0 10 0 a5 5 0 1 0 -10 0zM325 370 a5 5 0 1 0 10 0 a5 5 0 1 0 -10 0zM145 350 a5 5 0 1 0 10 0 a5 5 0 1 0 -10 0z" fill="#3a7cc3"></path><path d="M90 590L110 590M350 590L370 610L390 610L410 610L430 610M650 630L670 610L690 610M590 630L610 650M610 630L630 610L650 610M330 610L350 610M570 630L590 650M630 630L650 650M-10 570L10 570L30 570L50 570L70 570L90 590L110 610L130 610L150 610L170 610L190 610L210 610L230 610L250 610L270 610L290 610L310 610L330 610L350 590L370 590L390 590L410 590L430 590L450 610L470 610L490 630L510 630L530 630L550 630L570 630L590 630L610 630L630 630L650 630L670 630L690 630L710 630" stroke="#3a7cc3" stroke-width="3.33"></path><path d="M705 630 a5 5 0 1 0 10 0 a5 5 0 1 0 -10 0zM105 590 a5 5 0 1 0 10 0 a5 5 0 1 0 -10 0zM425 610 a5 5 0 1 0 10 0 a5 5 0 1 0 -10 0zM685 610 a5 5 0 1 0 10 0 a5 5 0 1 0 -10 0zM605 650 a5 5 0 1 0 10 0 a5 5 0 1 0 -10 0zM645 610 a5 5 0 1 0 10 0 a5 5 0 1 0 -10 0zM345 610 a5 5 0 1 0 10 0 a5 5 0 1 0 -10 0zM585 650 a5 5 0 1 0 10 0 a5 5 0 1 0 -10 0zM645 650 a5 5 0 1 0 10 0 a5 5 0 1 0 -10 0z" fill="#3a7cc3"></path><path d="M1070 310L1090 290L1110 290L1130 290L1150 290L1170 290L1190 290M730 290L750 290L770 290M950 310L970 290L990 290L1010 290L1030 290L1050 290L1070 290L1090 270L1110 270L1130 270L1150 270L1170 270M930 290L950 290L970 270L990 270L1010 270L1030 270L1050 270L1070 270L1090 250L1110 250L1130 250L1150 250L1170 250L1190 250M570 310L590 310M790 310L810 290M450 310L470 310L490 310L510 310L530 310L550 290L570 290M850 310L870 290L890 290L910 270L930 270L950 270L970 250L990 250L1010 250L1030 250L1050 250L1070 250M270 330L290 310L310 310L330 310M710 290L730 270L750 270L770 270L790 270L810 270L830 270L850 270L870 270L890 270L910 250L930 250L950 250L970 230L990 230L1010 230L1030 230L1050 230L1070 230L1090 230L1110 230M210 330L230 310L250 310L270 310M1010 310L1030 330L1050 330M890 310L910 310L930 310M190 330L210 310M330 330L350 330M-10 390L10 390L30 370L50 370L70 350L90 350L110 350L130 330L150 330L170 330L190 330L210 330L230 330L250 330L270 330L290 330L310 330L330 330L350 310L370 310L390 310L410 310L430 310L450 310L470 330L490 330L510 330L530 330L550 310L570 310L590 290L610 290L630 290L650 290L670 290L690 290L710 290L730 290L750 310L770 310L790 310L810 310L830 310L850 310L870 310L890 310L910 290L930 290L950 310L970 310L990 310L1010 310L1030 310L1050 310L1070 310L1090 310L1110 310L1130 310L1150 310L1170 310" stroke="#dd1133" stroke-width="3.33"></path><path d="M1165 310 a5 5 0 1 0 10 0 a5 5 0 1 0 -10 0zM1185 290 a5 5 0 1 0 10 0 a5 5 0 1 0 -10 0zM765 290 a5 5 0 1 0 10 0 a5 5 0 1 0 -10 0zM1165 270 a5 5 0 1 0 10 0 a5 5 0 1 0 -10 0zM1185 250 a5 5 0 1 0 10 0 a5 5 0 1 0 -10 0zM585 310 a5 5 0 1 0 10 0 a5 5 0 1 0 -10 0zM805 290 a5 5 0 1 0 10 0 a5 5 0 1 0 -10 0zM565 290 a5 5 0 1 0 10 0 a5 5 0 1 0 -10 0zM1065 250 a5 5 0 1 0 10 0 a5 5 0 1 0 -10 0zM325 310 a5 5 0 1 0 10 0 a5 5 0 1 0 -10 0zM1105 230 a5 5 0 1 0 10 0 a5 5 0 1 0 -10 0zM265 310 a5 5 0 1 0 10 0 a5 5 0 1 0 -10 0zM1045 330 a5 5 0 1 0 10 0 a5 5 0 1 0 -10 0zM925 310 a5 5 0 1 0 10 0 a5 5 0 1 0 -10 0zM205 310 a5 5 0 1 0 10 0 a5 5 0 1 0 -10 0zM345 330 a5 5 0 1 0 10 0 a5 5 0 1 0 -10 0z" fill="#dd1133"></path><path d="M410 630L430 650L450 650L470 650L490 670L510 670L530 670L550 670L570 690L590 710L610 710L630 710L650 710L670 710L690 730M590 670L610 690L630 690L650 690M690 650L710 670L730 670L750 670M1010 690L1030 670M830 690L850 710L870 710L890 710L910 710M770 670L790 650L810 650L830 650L850 650L870 650L890 650L910 650L930 650M670 650L690 670L710 690L730 690L750 690L770 690L790 710L810 710L830 710L850 730L870 730L890 730M390 630L410 650M750 650L770 650L790 630L810 630M910 690L930 670L950 670L970 670L990 670L1010 670L1030 650L1050 650L1070 650L1090 650L1110 650M930 690L950 710L970 710L990 710L1010 710L1030 710L1050 710L1070 710L1090 690M650 670L670 670L690 690L710 710L730 710L750 710L770 710L790 730L810 730L830 730M890 690L910 670M-10 590L10 590L30 590L50 590L70 590L90 610L110 630L130 630L150 630L170 630L190 630L210 630L230 630L250 630L270 630L290 630L310 630L330 630L350 630L370 630L390 630L410 630L430 630L450 630L470 630L490 650L510 650L530 650L550 650L570 670L590 670L610 670L630 670L650 670L670 650L690 650L710 650L730 650L750 650L770 670L790 690L810 690L830 690L850 690L870 690L890 690L910 690L930 690L950 690L970 690L990 690L1010 690L1030 690L1050 690" stroke="#3a7cc3" stroke-width="3.33"></path><path d="M1045 690 a5 5 0 1 0 10 0 a5 5 0 1 0 -10 0zM685 730 a5 5 0 1 0 10 0 a5 5 0 1 0 -10 0zM645 690 a5 5 0 1 0 10 0 a5 5 0 1 0 -10 0zM745 670 a5 5 0 1 0 10 0 a5 5 0 1 0 -10 0zM1025 670 a5 5 0 1 0 10 0 a5 5 0 1 0 -10 0zM905 710 a5 5 0 1 0 10 0 a5 5 0 1 0 -10 0zM925 650 a5 5 0 1 0 10 0 a5 5 0 1 0 -10 0zM885 730 a5 5 0 1 0 10 0 a5 5 0 1 0 -10 0zM405 650 a5 5 0 1 0 10 0 a5 5 0 1 0 -10 0zM805 630 a5 5 0 1 0 10 0 a5 5 0 1 0 -10 0zM1105 650 a5 5 0 1 0 10 0 a5 5 0 1 0 -10 0zM1085 690 a5 5 0 1 0 10 0 a5 5 0 1 0 -10 0zM825 730 a5 5 0 1 0 10 0 a5 5 0 1 0 -10 0zM905 670 a5 5 0 1 0 10 0 a5 5 0 1 0 -10 0z" fill="#3a7cc3"></path><path d="M150 310L170 310L190 310M510 270L530 290M130 310L150 290M430 290L450 290L470 290M690 270L710 270M490 270L510 290M-10 370L10 370L30 350L50 350L70 330L90 330L110 330L130 310L150 310L170 290L190 290L210 290L230 290L250 290L270 290L290 290L310 290L330 290L350 290L370 290L390 290L410 290L430 290L450 270L470 270L490 270L510 270L530 270L550 270L570 270L590 270L610 270L630 270L650 270L670 270L690 270L710 250L730 250L750 250L770 250L790 250L810 250L830 250" stroke="#3a7cc3" stroke-width="3.33"></path><path d="M825 250 a5 5 0 1 0 10 0 a5 5 0 1 0 -10 0zM185 310 a5 5 0 1 0 10 0 a5 5 0 1 0 -10 0zM525 290 a5 5 0 1 0 10 0 a5 5 0 1 0 -10 0zM145 290 a5 5 0 1 0 10 0 a5 5 0 1 0 -10 0zM465 290 a5 5 0 1 0 10 0 a5 5 0 1 0 -10 0zM705 270 a5 5 0 1 0 10 0 a5 5 0 1 0 -10 0zM505 290 a5 5 0 1 0 10 0 a5 5 0 1 0 -10 0z" fill="#3a7cc3"></path><path d="M-10 610L10 610L30 610L50 610L70 610L90 630L110 650L130 650L150 650L170 650L190 650L210 650L230 650L250 650L270 650L290 650L310 650L330 650L350 650L370 650" stroke="#3a7cc3" stroke-width="3.33"></path><path d="M365 650 a5 5 0 1 0 10 0 a5 5 0 1 0 -10 0z" fill="#3a7cc3"></path><path d="M-10 350L10 350L30 330L50 330L70 310L90 310" stroke="#3a7cc3" stroke-width="3.33"></path><path d="M85 310 a5 5 0 1 0 10 0 a5 5 0 1 0 -10 0z" fill="#3a7cc3"></path><path d="M410 670L430 690M-10 630L10 630L30 630L50 630L70 630L90 650L110 670L130 670L150 670L170 670L190 670L210 670L230 670L250 670L270 670L290 670L310 670L330 670L350 670L370 670L390 670L410 670L430 670" stroke="#dd1133" stroke-width="3.33"></path><path d="M425 670 a5 5 0 1 0 10 0 a5 5 0 1 0 -10 0zM425 690 a5 5 0 1 0 10 0 a5 5 0 1 0 -10 0z" fill="#dd1133"></path><path d="M410 270L430 250L450 230M370 270L390 250L410 250L430 230L450 210L470 210L490 210L510 210L530 210M510 250L530 230L550 230L570 230L590 230L610 230L630 230L650 230M470 250L490 230L510 230M870 230L890 210L910 210L930 210M290 270L310 250L330 250L350 250L370 250M670 250L690 230M110 270L130 290M830 230L850 210L870 210M250 270L270 250L290 250M730 230L750 210L770 210L790 210L810 210L830 210M-10 330L10 330L30 310L50 310L70 290L90 270L110 270L130 270L150 270L170 270L190 270L210 270L230 270L250 270L270 270L290 270L310 270L330 270L350 270L370 270L390 270L410 270L430 270L450 250L470 250L490 250L510 250L530 250L550 250L570 250L590 250L610 250L630 250L650 250L670 250L690 250L710 230L730 230L750 230L770 230L790 230L810 230L830 230L850 230L870 230L890 230" stroke="#3a7cc3" stroke-width="3.33"></path><path d="M885 230 a5 5 0 1 0 10 0 a5 5 0 1 0 -10 0zM445 230 a5 5 0 1 0 10 0 a5 5 0 1 0 -10 0zM525 210 a5 5 0 1 0 10 0 a5 5 0 1 0 -10 0zM645 230 a5 5 0 1 0 10 0 a5 5 0 1 0 -10 0zM505 230 a5 5 0 1 0 10 0 a5 5 0 1 0 -10 0zM925 210 a5 5 0 1 0 10 0 a5 5 0 1 0 -10 0zM365 250 a5 5 0 1 0 10 0 a5 5 0 1 0 -10 0zM685 230 a5 5 0 1 0 10 0 a5 5 0 1 0 -10 0zM125 290 a5 5 0 1 0 10 0 a5 5 0 1 0 -10 0zM865 210 a5 5 0 1 0 10 0 a5 5 0 1 0 -10 0zM285 250 a5 5 0 1 0 10 0 a5 5 0 1 0 -10 0zM825 210 a5 5 0 1 0 10 0 a5 5 0 1 0 -10 0z" fill="#3a7cc3"></path><path d="M370 690L390 690M530 710L550 690M490 710L510 690L530 690M470 710L490 690M450 710L470 690M-10 650L10 650L30 650L50 650L70 650L90 670L110 690L130 690L150 690L170 690L190 690L210 690L230 690L250 690L270 690L290 690L310 690L330 690L350 690L370 690L390 710L410 710L430 710L450 710L470 710L490 710L510 710L530 710L550 710L570 710L590 730" stroke="#3a7cc3" stroke-width="3.33"></path><path d="M585 730 a5 5 0 1 0 10 0 a5 5 0 1 0 -10 0zM385 690 a5 5 0 1 0 10 0 a5 5 0 1 0 -10 0zM545 690 a5 5 0 1 0 10 0 a5 5 0 1 0 -10 0zM525 690 a5 5 0 1 0 10 0 a5 5 0 1 0 -10 0zM485 690 a5 5 0 1 0 10 0 a5 5 0 1 0 -10 0zM465 690 a5 5 0 1 0 10 0 a5 5 0 1 0 -10 0z" fill="#3a7cc3"></path><path d="M270 230L290 210M230 230L250 250M170 250L190 230M250 230L270 210M-10 310L10 310L30 290L50 290L70 270L90 250L110 250L130 250L150 250L170 250L190 250L210 250L230 230L250 230L270 230L290 230L310 210" stroke="#dd1133" stroke-width="3.33"></path><path d="M305 210 a5 5 0 1 0 10 0 a5 5 0 1 0 -10 0zM285 210 a5 5 0 1 0 10 0 a5 5 0 1 0 -10 0zM245 250 a5 5 0 1 0 10 0 a5 5 0 1 0 -10 0zM185 230 a5 5 0 1 0 10 0 a5 5 0 1 0 -10 0zM265 210 a5 5 0 1 0 10 0 a5 5 0 1 0 -10 0z" fill="#dd1133"></path><path d="M910 730L930 750M690 770L710 790L730 810L750 810L770 810L790 810L810 810L830 810L850 810L870 810L890 810L910 810M710 770L730 750L750 730M790 750L810 770L830 770L850 770L870 770L890 770L910 770L930 770L950 770L970 770L990 770L1010 770L1030 770L1050 770L1070 770L1090 770M890 750L910 750M1050 750L1070 730L1090 730L1110 730L1130 750L1150 770M670 770L690 750L710 750L730 730M610 750L630 730L650 730L670 730M970 730L990 750M990 730L1010 730M330 710L350 730M630 750L650 750L670 750M1030 750L1050 730M770 750L790 770L810 790L830 790M-10 670L10 670L30 670L50 670L70 670L90 690L110 710L130 710L150 710L170 710L190 710L210 710L230 710L250 710L270 710L290 710L310 710L330 710L350 710L370 710L390 730L410 730L430 730L450 730L470 730L490 730L510 730L530 730L550 730L570 730L590 750L610 750L630 750L650 770L670 770L690 770L710 770L730 770L750 750L770 750L790 750L810 750L830 750L850 750L870 750L890 750L910 730L930 730L950 730L970 730L990 730L1010 750L1030 750L1050 750L1070 750L1090 750L1110 750" stroke="#dd1133" stroke-width="3.33"></path><path d="M1105 750 a5 5 0 1 0 10 0 a5 5 0 1 0 -10 0zM925 750 a5 5 0 1 0 10 0 a5 5 0 1 0 -10 0zM905 810 a5 5 0 1 0 10 0 a5 5 0 1 0 -10 0zM745 730 a5 5 0 1 0 10 0 a5 5 0 1 0 -10 0zM1085 770 a5 5 0 1 0 10 0 a5 5 0 1 0 -10 0zM905 750 a5 5 0 1 0 10 0 a5 5 0 1 0 -10 0zM1145 770 a5 5 0 1 0 10 0 a5 5 0 1 0 -10 0zM725 730 a5 5 0 1 0 10 0 a5 5 0 1 0 -10 0zM665 730 a5 5 0 1 0 10 0 a5 5 0 1 0 -10 0zM985 750 a5 5 0 1 0 10 0 a5 5 0 1 0 -10 0zM1005 730 a5 5 0 1 0 10 0 a5 5 0 1 0 -10 0zM345 730 a5 5 0 1 0 10 0 a5 5 0 1 0 -10 0zM665 750 a5 5 0 1 0 10 0 a5 5 0 1 0 -10 0zM1045 730 a5 5 0 1 0 10 0 a5 5 0 1 0 -10 0zM825 790 a5 5 0 1 0 10 0 a5 5 0 1 0 -10 0z" fill="#dd1133"></path><path d="M-10 290L10 290L30 270L50 270L70 250L90 230L110 230" stroke="#3a7cc3" stroke-width="3.33"></path><path d="M105 230 a5 5 0 1 0 10 0 a5 5 0 1 0 -10 0z" fill="#3a7cc3"></path><path d="M290 750L310 730L330 730M450 750L470 770L490 770L510 770L530 770M210 730L230 750L250 750M410 750L430 770L450 790L470 790M650 790L670 810L690 810L710 810M550 750L570 770L590 790L610 790L630 790M370 750L390 770L410 770L430 790L450 810L470 810L490 810L510 810L530 810L550 810L570 810L590 810L610 810M190 730L210 750M-10 690L10 690L30 690L50 690L70 690L90 710L110 730L130 730L150 730L170 730L190 730L210 730L230 730L250 730L270 730L290 750L310 750L330 750L350 750L370 750L390 750L410 750L430 750L450 750L470 750L490 750L510 750L530 750L550 750L570 750L590 770L610 770L630 770L650 790L670 790" stroke="#3a7cc3" stroke-width="3.33"></path><path d="M665 790 a5 5 0 1 0 10 0 a5 5 0 1 0 -10 0zM325 730 a5 5 0 1 0 10 0 a5 5 0 1 0 -10 0zM525 770 a5 5 0 1 0 10 0 a5 5 0 1 0 -10 0zM245 750 a5 5 0 1 0 10 0 a5 5 0 1 0 -10 0zM465 790 a5 5 0 1 0 10 0 a5 5 0 1 0 -10 0zM705 810 a5 5 0 1 0 10 0 a5 5 0 1 0 -10 0zM625 790 a5 5 0 1 0 10 0 a5 5 0 1 0 -10 0zM605 810 a5 5 0 1 0 10 0 a5 5 0 1 0 -10 0zM205 750 a5 5 0 1 0 10 0 a5 5 0 1 0 -10 0z" fill="#3a7cc3"></path><path d="M430 190L450 170L470 170L490 150L510 150L530 150M210 190L230 170L250 170L270 170L290 170L310 170L330 170L350 170L370 170L390 170L410 170L430 170L450 150L470 150L490 130L510 130M830 190L850 170L870 170L890 170L910 170M110 210L130 210L150 210L170 210M510 190L530 170M410 190L430 210M390 190L410 210M370 190L390 210L410 230M810 190L830 170M1010 190L1030 190M150 190L170 170L190 170L210 170L230 150L250 150L270 150M190 190L210 210L230 210L250 210M130 190L150 170L170 150L190 150L210 150L230 130L250 130L270 130L290 130L310 130L330 130L350 130L370 130L390 130L410 130L430 130L450 130L470 130L490 110L510 110L530 130L550 150M-10 270L10 270L30 250L50 250L70 230L90 210L110 210L130 190L150 190L170 190L190 190L210 190L230 190L250 190L270 190L290 190L310 190L330 190L350 190L370 190L390 190L410 190L430 190L450 190L470 190L490 190L510 190L530 190L550 190L570 190L590 190L610 190L630 190L650 190L670 190L690 190L710 190L730 190L750 190L770 190L790 190L810 190L830 190L850 190L870 190L890 190L910 190L930 190L950 190L970 190L990 190L1010 190L1030 210L1050 210" stroke="#dd1133" stroke-width="3.33"></path><path d="M1045 210 a5 5 0 1 0 10 0 a5 5 0 1 0 -10 0zM525 150 a5 5 0 1 0 10 0 a5 5 0 1 0 -10 0zM505 130 a5 5 0 1 0 10 0 a5 5 0 1 0 -10 0zM905 170 a5 5 0 1 0 10 0 a5 5 0 1 0 -10 0zM165 210 a5 5 0 1 0 10 0 a5 5 0 1 0 -10 0zM525 170 a5 5 0 1 0 10 0 a5 5 0 1 0 -10 0zM425 210 a5 5 0 1 0 10 0 a5 5 0 1 0 -10 0zM405 210 a5 5 0 1 0 10 0 a5 5 0 1 0 -10 0zM405 230 a5 5 0 1 0 10 0 a5 5 0 1 0 -10 0zM825 170 a5 5 0 1 0 10 0 a5 5 0 1 0 -10 0zM1025 190 a5 5 0 1 0 10 0 a5 5 0 1 0 -10 0zM265 150 a5 5 0 1 0 10 0 a5 5 0 1 0 -10 0zM245 210 a5 5 0 1 0 10 0 a5 5 0 1 0 -10 0zM545 150 a5 5 0 1 0 10 0 a5 5 0 1 0 -10 0z" fill="#dd1133"></path><path d="M170 750L190 750M190 770L210 790L230 790L250 790L270 790M110 750L130 770L150 770M-10 710L10 710L30 710L50 730L70 730L90 730L110 750L130 750L150 750L170 750L190 770L210 770L230 770L250 770L270 750" stroke="#dd1133" stroke-width="3.33"></path><path d="M265 750 a5 5 0 1 0 10 0 a5 5 0 1 0 -10 0zM185 750 a5 5 0 1 0 10 0 a5 5 0 1 0 -10 0zM265 790 a5 5 0 1 0 10 0 a5 5 0 1 0 -10 0zM145 770 a5 5 0 1 0 10 0 a5 5 0 1 0 -10 0z" fill="#dd1133"></path><path d="M30 230L50 210M-10 250L10 250L30 230L50 230" stroke="#dd1133" stroke-width="3.33"></path><path d="M45 230 a5 5 0 1 0 10 0 a5 5 0 1 0 -10 0zM45 210 a5 5 0 1 0 10 0 a5 5 0 1 0 -10 0z" fill="#dd1133"></path></g></g><defs><mask id="SvgjsMask1335"><rect width="1440" height="960" fill="#ffffff"></rect></mask><mask id="SvgjsMask1336"><rect width="1440" height="960" fill="white"></rect><path d="M827.5 510 a2.5 2.5 0 1 0 5 0 a2.5 2.5 0 1 0 -5 0zM1027.5 470 a2.5 2.5 0 1 0 5 0 a2.5 2.5 0 1 0 -5 0zM447.5 470 a2.5 2.5 0 1 0 5 0 a2.5 2.5 0 1 0 -5 0zM747.5 450 a2.5 2.5 0 1 0 5 0 a2.5 2.5 0 1 0 -5 0zM507.5 470 a2.5 2.5 0 1 0 5 0 a2.5 2.5 0 1 0 -5 0zM667.5 530 a2.5 2.5 0 1 0 5 0 a2.5 2.5 0 1 0 -5 0zM87.5 470 a2.5 2.5 0 1 0 5 0 a2.5 2.5 0 1 0 -5 0zM287.5 470 a2.5 2.5 0 1 0 5 0 a2.5 2.5 0 1 0 -5 0zM1007.5 470 a2.5 2.5 0 1 0 5 0 a2.5 2.5 0 1 0 -5 0zM67.5 470 a2.5 2.5 0 1 0 5 0 a2.5 2.5 0 1 0 -5 0zM547.5 450 a2.5 2.5 0 1 0 5 0 a2.5 2.5 0 1 0 -5 0z" fill="black"></path><path d="M447.5 430 a2.5 2.5 0 1 0 5 0 a2.5 2.5 0 1 0 -5 0zM367.5 470 a2.5 2.5 0 1 0 5 0 a2.5 2.5 0 1 0 -5 0zM127.5 470 a2.5 2.5 0 1 0 5 0 a2.5 2.5 0 1 0 -5 0zM427.5 450 a2.5 2.5 0 1 0 5 0 a2.5 2.5 0 1 0 -5 0zM27.5 470 a2.5 2.5 0 1 0 5 0 a2.5 2.5 0 1 0 -5 0z" fill="black"></path><path d="M907.5 510 a2.5 2.5 0 1 0 5 0 a2.5 2.5 0 1 0 -5 0zM487.5 530 a2.5 2.5 0 1 0 5 0 a2.5 2.5 0 1 0 -5 0zM307.5 530 a2.5 2.5 0 1 0 5 0 a2.5 2.5 0 1 0 -5 0zM147.5 530 a2.5 2.5 0 1 0 5 0 a2.5 2.5 0 1 0 -5 0zM747.5 530 a2.5 2.5 0 1 0 5 0 a2.5 2.5 0 1 0 -5 0zM187.5 530 a2.5 2.5 0 1 0 5 0 a2.5 2.5 0 1 0 -5 0zM867.5 530 a2.5 2.5 0 1 0 5 0 a2.5 2.5 0 1 0 -5 0zM707.5 530 a2.5 2.5 0 1 0 5 0 a2.5 2.5 0 1 0 -5 0zM947.5 570 a2.5 2.5 0 1 0 5 0 a2.5 2.5 0 1 0 -5 0zM847.5 530 a2.5 2.5 0 1 0 5 0 a2.5 2.5 0 1 0 -5 0zM887.5 590 a2.5 2.5 0 1 0 5 0 a2.5 2.5 0 1 0 -5 0zM447.5 530 a2.5 2.5 0 1 0 5 0 a2.5 2.5 0 1 0 -5 0z" fill="black"></path><path d="M987.5 410 a2.5 2.5 0 1 0 5 0 a2.5 2.5 0 1 0 -5 0zM607.5 410 a2.5 2.5 0 1 0 5 0 a2.5 2.5 0 1 0 -5 0zM547.5 410 a2.5 2.5 0 1 0 5 0 a2.5 2.5 0 1 0 -5 0zM987.5 430 a2.5 2.5 0 1 0 5 0 a2.5 2.5 0 1 0 -5 0zM887.5 430 a2.5 2.5 0 1 0 5 0 a2.5 2.5 0 1 0 -5 0zM127.5 410 a2.5 2.5 0 1 0 5 0 a2.5 2.5 0 1 0 -5 0zM927.5 430 a2.5 2.5 0 1 0 5 0 a2.5 2.5 0 1 0 -5 0zM1187.5 390 a2.5 2.5 0 1 0 5 0 a2.5 2.5 0 1 0 -5 0zM387.5 410 a2.5 2.5 0 1 0 5 0 a2.5 2.5 0 1 0 -5 0zM707.5 450 a2.5 2.5 0 1 0 5 0 a2.5 2.5 0 1 0 -5 0zM347.5 410 a2.5 2.5 0 1 0 5 0 a2.5 2.5 0 1 0 -5 0zM747.5 390 a2.5 2.5 0 1 0 5 0 a2.5 2.5 0 1 0 -5 0zM307.5 410 a2.5 2.5 0 1 0 5 0 a2.5 2.5 0 1 0 -5 0z" fill="black"></path><path d="M1167.5 610 a2.5 2.5 0 1 0 5 0 a2.5 2.5 0 1 0 -5 0zM727.5 590 a2.5 2.5 0 1 0 5 0 a2.5 2.5 0 1 0 -5 0zM1067.5 630 a2.5 2.5 0 1 0 5 0 a2.5 2.5 0 1 0 -5 0zM987.5 590 a2.5 2.5 0 1 0 5 0 a2.5 2.5 0 1 0 -5 0zM1167.5 590 a2.5 2.5 0 1 0 5 0 a2.5 2.5 0 1 0 -5 0zM227.5 530 a2.5 2.5 0 1 0 5 0 a2.5 2.5 0 1 0 -5 0zM1147.5 590 a2.5 2.5 0 1 0 5 0 a2.5 2.5 0 1 0 -5 0zM807.5 570 a2.5 2.5 0 1 0 5 0 a2.5 2.5 0 1 0 -5 0zM467.5 570 a2.5 2.5 0 1 0 5 0 a2.5 2.5 0 1 0 -5 0zM927.5 590 a2.5 2.5 0 1 0 5 0 a2.5 2.5 0 1 0 -5 0zM867.5 590 a2.5 2.5 0 1 0 5 0 a2.5 2.5 0 1 0 -5 0zM787.5 570 a2.5 2.5 0 1 0 5 0 a2.5 2.5 0 1 0 -5 0zM547.5 590 a2.5 2.5 0 1 0 5 0 a2.5 2.5 0 1 0 -5 0zM827.5 590 a2.5 2.5 0 1 0 5 0 a2.5 2.5 0 1 0 -5 0zM1107.5 590 a2.5 2.5 0 1 0 5 0 a2.5 2.5 0 1 0 -5 0zM1147.5 630 a2.5 2.5 0 1 0 5 0 a2.5 2.5 0 1 0 -5 0z" fill="black"></path><path d="M1167.5 370 a2.5 2.5 0 1 0 5 0 a2.5 2.5 0 1 0 -5 0zM287.5 370 a2.5 2.5 0 1 0 5 0 a2.5 2.5 0 1 0 -5 0zM247.5 370 a2.5 2.5 0 1 0 5 0 a2.5 2.5 0 1 0 -5 0zM487.5 370 a2.5 2.5 0 1 0 5 0 a2.5 2.5 0 1 0 -5 0zM207.5 390 a2.5 2.5 0 1 0 5 0 a2.5 2.5 0 1 0 -5 0zM667.5 350 a2.5 2.5 0 1 0 5 0 a2.5 2.5 0 1 0 -5 0zM1187.5 350 a2.5 2.5 0 1 0 5 0 a2.5 2.5 0 1 0 -5 0zM1187.5 330 a2.5 2.5 0 1 0 5 0 a2.5 2.5 0 1 0 -5 0zM447.5 370 a2.5 2.5 0 1 0 5 0 a2.5 2.5 0 1 0 -5 0zM107.5 410 a2.5 2.5 0 1 0 5 0 a2.5 2.5 0 1 0 -5 0zM67.5 410 a2.5 2.5 0 1 0 5 0 a2.5 2.5 0 1 0 -5 0zM887.5 390 a2.5 2.5 0 1 0 5 0 a2.5 2.5 0 1 0 -5 0zM1027.5 350 a2.5 2.5 0 1 0 5 0 a2.5 2.5 0 1 0 -5 0zM527.5 410 a2.5 2.5 0 1 0 5 0 a2.5 2.5 0 1 0 -5 0zM967.5 330 a2.5 2.5 0 1 0 5 0 a2.5 2.5 0 1 0 -5 0zM647.5 390 a2.5 2.5 0 1 0 5 0 a2.5 2.5 0 1 0 -5 0z" fill="black"></path><path d="M587.5 610 a2.5 2.5 0 1 0 5 0 a2.5 2.5 0 1 0 -5 0zM447.5 570 a2.5 2.5 0 1 0 5 0 a2.5 2.5 0 1 0 -5 0zM527.5 590 a2.5 2.5 0 1 0 5 0 a2.5 2.5 0 1 0 -5 0zM267.5 590 a2.5 2.5 0 1 0 5 0 a2.5 2.5 0 1 0 -5 0zM327.5 590 a2.5 2.5 0 1 0 5 0 a2.5 2.5 0 1 0 -5 0zM187.5 590 a2.5 2.5 0 1 0 5 0 a2.5 2.5 0 1 0 -5 0zM127.5 590 a2.5 2.5 0 1 0 5 0 a2.5 2.5 0 1 0 -5 0z" fill="black"></path><path d="M907.5 350 a2.5 2.5 0 1 0 5 0 a2.5 2.5 0 1 0 -5 0zM847.5 330 a2.5 2.5 0 1 0 5 0 a2.5 2.5 0 1 0 -5 0zM347.5 370 a2.5 2.5 0 1 0 5 0 a2.5 2.5 0 1 0 -5 0zM947.5 330 a2.5 2.5 0 1 0 5 0 a2.5 2.5 0 1 0 -5 0zM727.5 330 a2.5 2.5 0 1 0 5 0 a2.5 2.5 0 1 0 -5 0zM687.5 330 a2.5 2.5 0 1 0 5 0 a2.5 2.5 0 1 0 -5 0zM887.5 330 a2.5 2.5 0 1 0 5 0 a2.5 2.5 0 1 0 -5 0zM567.5 350 a2.5 2.5 0 1 0 5 0 a2.5 2.5 0 1 0 -5 0zM407.5 330 a2.5 2.5 0 1 0 5 0 a2.5 2.5 0 1 0 -5 0zM447.5 330 a2.5 2.5 0 1 0 5 0 a2.5 2.5 0 1 0 -5 0zM327.5 370 a2.5 2.5 0 1 0 5 0 a2.5 2.5 0 1 0 -5 0zM147.5 350 a2.5 2.5 0 1 0 5 0 a2.5 2.5 0 1 0 -5 0z" fill="black"></path><path d="M707.5 630 a2.5 2.5 0 1 0 5 0 a2.5 2.5 0 1 0 -5 0zM107.5 590 a2.5 2.5 0 1 0 5 0 a2.5 2.5 0 1 0 -5 0zM427.5 610 a2.5 2.5 0 1 0 5 0 a2.5 2.5 0 1 0 -5 0zM687.5 610 a2.5 2.5 0 1 0 5 0 a2.5 2.5 0 1 0 -5 0zM607.5 650 a2.5 2.5 0 1 0 5 0 a2.5 2.5 0 1 0 -5 0zM647.5 610 a2.5 2.5 0 1 0 5 0 a2.5 2.5 0 1 0 -5 0zM347.5 610 a2.5 2.5 0 1 0 5 0 a2.5 2.5 0 1 0 -5 0zM587.5 650 a2.5 2.5 0 1 0 5 0 a2.5 2.5 0 1 0 -5 0zM647.5 650 a2.5 2.5 0 1 0 5 0 a2.5 2.5 0 1 0 -5 0z" fill="black"></path><path d="M1167.5 310 a2.5 2.5 0 1 0 5 0 a2.5 2.5 0 1 0 -5 0zM1187.5 290 a2.5 2.5 0 1 0 5 0 a2.5 2.5 0 1 0 -5 0zM767.5 290 a2.5 2.5 0 1 0 5 0 a2.5 2.5 0 1 0 -5 0zM1167.5 270 a2.5 2.5 0 1 0 5 0 a2.5 2.5 0 1 0 -5 0zM1187.5 250 a2.5 2.5 0 1 0 5 0 a2.5 2.5 0 1 0 -5 0zM587.5 310 a2.5 2.5 0 1 0 5 0 a2.5 2.5 0 1 0 -5 0zM807.5 290 a2.5 2.5 0 1 0 5 0 a2.5 2.5 0 1 0 -5 0zM567.5 290 a2.5 2.5 0 1 0 5 0 a2.5 2.5 0 1 0 -5 0zM1067.5 250 a2.5 2.5 0 1 0 5 0 a2.5 2.5 0 1 0 -5 0zM327.5 310 a2.5 2.5 0 1 0 5 0 a2.5 2.5 0 1 0 -5 0zM1107.5 230 a2.5 2.5 0 1 0 5 0 a2.5 2.5 0 1 0 -5 0zM267.5 310 a2.5 2.5 0 1 0 5 0 a2.5 2.5 0 1 0 -5 0zM1047.5 330 a2.5 2.5 0 1 0 5 0 a2.5 2.5 0 1 0 -5 0zM927.5 310 a2.5 2.5 0 1 0 5 0 a2.5 2.5 0 1 0 -5 0zM207.5 310 a2.5 2.5 0 1 0 5 0 a2.5 2.5 0 1 0 -5 0zM347.5 330 a2.5 2.5 0 1 0 5 0 a2.5 2.5 0 1 0 -5 0z" fill="black"></path><path d="M1047.5 690 a2.5 2.5 0 1 0 5 0 a2.5 2.5 0 1 0 -5 0zM687.5 730 a2.5 2.5 0 1 0 5 0 a2.5 2.5 0 1 0 -5 0zM647.5 690 a2.5 2.5 0 1 0 5 0 a2.5 2.5 0 1 0 -5 0zM747.5 670 a2.5 2.5 0 1 0 5 0 a2.5 2.5 0 1 0 -5 0zM1027.5 670 a2.5 2.5 0 1 0 5 0 a2.5 2.5 0 1 0 -5 0zM907.5 710 a2.5 2.5 0 1 0 5 0 a2.5 2.5 0 1 0 -5 0zM927.5 650 a2.5 2.5 0 1 0 5 0 a2.5 2.5 0 1 0 -5 0zM887.5 730 a2.5 2.5 0 1 0 5 0 a2.5 2.5 0 1 0 -5 0zM407.5 650 a2.5 2.5 0 1 0 5 0 a2.5 2.5 0 1 0 -5 0zM807.5 630 a2.5 2.5 0 1 0 5 0 a2.5 2.5 0 1 0 -5 0zM1107.5 650 a2.5 2.5 0 1 0 5 0 a2.5 2.5 0 1 0 -5 0zM1087.5 690 a2.5 2.5 0 1 0 5 0 a2.5 2.5 0 1 0 -5 0zM827.5 730 a2.5 2.5 0 1 0 5 0 a2.5 2.5 0 1 0 -5 0zM907.5 670 a2.5 2.5 0 1 0 5 0 a2.5 2.5 0 1 0 -5 0z" fill="black"></path><path d="M827.5 250 a2.5 2.5 0 1 0 5 0 a2.5 2.5 0 1 0 -5 0zM187.5 310 a2.5 2.5 0 1 0 5 0 a2.5 2.5 0 1 0 -5 0zM527.5 290 a2.5 2.5 0 1 0 5 0 a2.5 2.5 0 1 0 -5 0zM147.5 290 a2.5 2.5 0 1 0 5 0 a2.5 2.5 0 1 0 -5 0zM467.5 290 a2.5 2.5 0 1 0 5 0 a2.5 2.5 0 1 0 -5 0zM707.5 270 a2.5 2.5 0 1 0 5 0 a2.5 2.5 0 1 0 -5 0zM507.5 290 a2.5 2.5 0 1 0 5 0 a2.5 2.5 0 1 0 -5 0z" fill="black"></path><path d="M367.5 650 a2.5 2.5 0 1 0 5 0 a2.5 2.5 0 1 0 -5 0z" fill="black"></path><path d="M87.5 310 a2.5 2.5 0 1 0 5 0 a2.5 2.5 0 1 0 -5 0z" fill="black"></path><path d="M427.5 670 a2.5 2.5 0 1 0 5 0 a2.5 2.5 0 1 0 -5 0zM427.5 690 a2.5 2.5 0 1 0 5 0 a2.5 2.5 0 1 0 -5 0z" fill="black"></path><path d="M887.5 230 a2.5 2.5 0 1 0 5 0 a2.5 2.5 0 1 0 -5 0zM447.5 230 a2.5 2.5 0 1 0 5 0 a2.5 2.5 0 1 0 -5 0zM527.5 210 a2.5 2.5 0 1 0 5 0 a2.5 2.5 0 1 0 -5 0zM647.5 230 a2.5 2.5 0 1 0 5 0 a2.5 2.5 0 1 0 -5 0zM507.5 230 a2.5 2.5 0 1 0 5 0 a2.5 2.5 0 1 0 -5 0zM927.5 210 a2.5 2.5 0 1 0 5 0 a2.5 2.5 0 1 0 -5 0zM367.5 250 a2.5 2.5 0 1 0 5 0 a2.5 2.5 0 1 0 -5 0zM687.5 230 a2.5 2.5 0 1 0 5 0 a2.5 2.5 0 1 0 -5 0zM127.5 290 a2.5 2.5 0 1 0 5 0 a2.5 2.5 0 1 0 -5 0zM867.5 210 a2.5 2.5 0 1 0 5 0 a2.5 2.5 0 1 0 -5 0zM287.5 250 a2.5 2.5 0 1 0 5 0 a2.5 2.5 0 1 0 -5 0zM827.5 210 a2.5 2.5 0 1 0 5 0 a2.5 2.5 0 1 0 -5 0z" fill="black"></path><path d="M587.5 730 a2.5 2.5 0 1 0 5 0 a2.5 2.5 0 1 0 -5 0zM387.5 690 a2.5 2.5 0 1 0 5 0 a2.5 2.5 0 1 0 -5 0zM547.5 690 a2.5 2.5 0 1 0 5 0 a2.5 2.5 0 1 0 -5 0zM527.5 690 a2.5 2.5 0 1 0 5 0 a2.5 2.5 0 1 0 -5 0zM487.5 690 a2.5 2.5 0 1 0 5 0 a2.5 2.5 0 1 0 -5 0zM467.5 690 a2.5 2.5 0 1 0 5 0 a2.5 2.5 0 1 0 -5 0z" fill="black"></path><path d="M307.5 210 a2.5 2.5 0 1 0 5 0 a2.5 2.5 0 1 0 -5 0zM287.5 210 a2.5 2.5 0 1 0 5 0 a2.5 2.5 0 1 0 -5 0zM247.5 250 a2.5 2.5 0 1 0 5 0 a2.5 2.5 0 1 0 -5 0zM187.5 230 a2.5 2.5 0 1 0 5 0 a2.5 2.5 0 1 0 -5 0zM267.5 210 a2.5 2.5 0 1 0 5 0 a2.5 2.5 0 1 0 -5 0z" fill="black"></path><path d="M1107.5 750 a2.5 2.5 0 1 0 5 0 a2.5 2.5 0 1 0 -5 0zM927.5 750 a2.5 2.5 0 1 0 5 0 a2.5 2.5 0 1 0 -5 0zM907.5 810 a2.5 2.5 0 1 0 5 0 a2.5 2.5 0 1 0 -5 0zM747.5 730 a2.5 2.5 0 1 0 5 0 a2.5 2.5 0 1 0 -5 0zM1087.5 770 a2.5 2.5 0 1 0 5 0 a2.5 2.5 0 1 0 -5 0zM907.5 750 a2.5 2.5 0 1 0 5 0 a2.5 2.5 0 1 0 -5 0zM1147.5 770 a2.5 2.5 0 1 0 5 0 a2.5 2.5 0 1 0 -5 0zM727.5 730 a2.5 2.5 0 1 0 5 0 a2.5 2.5 0 1 0 -5 0zM667.5 730 a2.5 2.5 0 1 0 5 0 a2.5 2.5 0 1 0 -5 0zM987.5 750 a2.5 2.5 0 1 0 5 0 a2.5 2.5 0 1 0 -5 0zM1007.5 730 a2.5 2.5 0 1 0 5 0 a2.5 2.5 0 1 0 -5 0zM347.5 730 a2.5 2.5 0 1 0 5 0 a2.5 2.5 0 1 0 -5 0zM667.5 750 a2.5 2.5 0 1 0 5 0 a2.5 2.5 0 1 0 -5 0zM1047.5 730 a2.5 2.5 0 1 0 5 0 a2.5 2.5 0 1 0 -5 0zM827.5 790 a2.5 2.5 0 1 0 5 0 a2.5 2.5 0 1 0 -5 0z" fill="black"></path><path d="M107.5 230 a2.5 2.5 0 1 0 5 0 a2.5 2.5 0 1 0 -5 0z" fill="black"></path><path d="M667.5 790 a2.5 2.5 0 1 0 5 0 a2.5 2.5 0 1 0 -5 0zM327.5 730 a2.5 2.5 0 1 0 5 0 a2.5 2.5 0 1 0 -5 0zM527.5 770 a2.5 2.5 0 1 0 5 0 a2.5 2.5 0 1 0 -5 0zM247.5 750 a2.5 2.5 0 1 0 5 0 a2.5 2.5 0 1 0 -5 0zM467.5 790 a2.5 2.5 0 1 0 5 0 a2.5 2.5 0 1 0 -5 0zM707.5 810 a2.5 2.5 0 1 0 5 0 a2.5 2.5 0 1 0 -5 0zM627.5 790 a2.5 2.5 0 1 0 5 0 a2.5 2.5 0 1 0 -5 0zM607.5 810 a2.5 2.5 0 1 0 5 0 a2.5 2.5 0 1 0 -5 0zM207.5 750 a2.5 2.5 0 1 0 5 0 a2.5 2.5 0 1 0 -5 0z" fill="black"></path><path d="M1047.5 210 a2.5 2.5 0 1 0 5 0 a2.5 2.5 0 1 0 -5 0zM527.5 150 a2.5 2.5 0 1 0 5 0 a2.5 2.5 0 1 0 -5 0zM507.5 130 a2.5 2.5 0 1 0 5 0 a2.5 2.5 0 1 0 -5 0zM907.5 170 a2.5 2.5 0 1 0 5 0 a2.5 2.5 0 1 0 -5 0zM167.5 210 a2.5 2.5 0 1 0 5 0 a2.5 2.5 0 1 0 -5 0zM527.5 170 a2.5 2.5 0 1 0 5 0 a2.5 2.5 0 1 0 -5 0zM427.5 210 a2.5 2.5 0 1 0 5 0 a2.5 2.5 0 1 0 -5 0zM407.5 210 a2.5 2.5 0 1 0 5 0 a2.5 2.5 0 1 0 -5 0zM407.5 230 a2.5 2.5 0 1 0 5 0 a2.5 2.5 0 1 0 -5 0zM827.5 170 a2.5 2.5 0 1 0 5 0 a2.5 2.5 0 1 0 -5 0zM1027.5 190 a2.5 2.5 0 1 0 5 0 a2.5 2.5 0 1 0 -5 0zM267.5 150 a2.5 2.5 0 1 0 5 0 a2.5 2.5 0 1 0 -5 0zM247.5 210 a2.5 2.5 0 1 0 5 0 a2.5 2.5 0 1 0 -5 0zM547.5 150 a2.5 2.5 0 1 0 5 0 a2.5 2.5 0 1 0 -5 0z" fill="black"></path><path d="M267.5 750 a2.5 2.5 0 1 0 5 0 a2.5 2.5 0 1 0 -5 0zM187.5 750 a2.5 2.5 0 1 0 5 0 a2.5 2.5 0 1 0 -5 0zM267.5 790 a2.5 2.5 0 1 0 5 0 a2.5 2.5 0 1 0 -5 0zM147.5 770 a2.5 2.5 0 1 0 5 0 a2.5 2.5 0 1 0 -5 0z" fill="black"></path><path d="M47.5 230 a2.5 2.5 0 1 0 5 0 a2.5 2.5 0 1 0 -5 0zM47.5 210 a2.5 2.5 0 1 0 5 0 a2.5 2.5 0 1 0 -5 0z" fill="black"></path></mask></defs></svg>